<svg width="202" height="40" viewBox="0 0 202 40" fill="none" xmlns="http://www.w3.org/2000/svg">
    <g clip-path="url(#clip0_72_2)">
        <path fill-rule="evenodd" clip-rule="evenodd"
            d="M25.5557 11.6853C23.9112 10.5865 21.9778 10 20 10V0C23.9556 0 27.8224 1.17298 31.1114 3.37061C34.4004 5.56823 36.9638 8.69181 38.4776 12.3463C39.9913 16.0008 40.3874 20.0222 39.6157 23.9018C38.844 27.7814 36.9392 31.3451 34.1421 34.1421C31.3451 36.9392 27.7814 38.844 23.9018 39.6157C20.0222 40.3874 16.0008 39.9913 12.3463 38.4776C8.6918 36.9638 5.56823 34.4004 3.37061 31.1114C1.17298 27.8224 0 23.9556 0 20H10C10 21.9778 10.5865 23.9112 11.6853 25.5557C12.7841 27.2002 14.3459 28.4819 16.1732 29.2388C18.0004 29.9957 20.0111 30.1937 21.9509 29.8078C23.8907 29.422 25.6725 28.4696 27.0711 27.0711C28.4696 25.6725 29.422 23.8907 29.8078 21.9509C30.1937 20.0111 29.9957 18.0004 29.2388 16.1732C28.4819 14.3459 27.2002 12.7841 25.5557 11.6853Z"
            fill="white" />
        <path fill-rule="evenodd" clip-rule="evenodd"
            d="M9.99999 5.28493e-06C9.99999 1.31322 9.74134 2.61358 9.23879 3.82684C8.73624 5.04009 7.99965 6.14248 7.07106 7.07107C6.14248 7.99966 5.04009 8.73625 3.82683 9.2388C2.61357 9.74134 1.31321 10 4.3711e-07 10L0 20C2.62643 20 5.22715 19.4827 7.65367 18.4776C10.0802 17.4725 12.285 15.9993 14.1421 14.1421C15.9993 12.285 17.4725 10.0802 18.4776 7.65367C19.4827 5.22715 20 2.62643 20 0L9.99999 5.28493e-06Z"
            fill="white" />
        <path
            d="M62.115 30.385C60.365 30.385 58.7783 30 57.355 29.23C55.9317 28.46 54.8117 27.3983 53.995 26.045C53.1783 24.6917 52.77 23.175 52.77 21.495C52.77 19.7917 53.1783 18.275 53.995 16.945C54.835 15.5917 55.9667 14.53 57.39 13.76C58.8133 12.99 60.4117 12.605 62.185 12.605C63.515 12.605 64.7283 12.8383 65.825 13.305C66.945 13.7483 67.9367 14.425 68.8 15.335L65.37 18.765C64.9733 18.3217 64.5067 17.995 63.97 17.785C63.4567 17.575 62.8617 17.47 62.185 17.47C61.415 17.47 60.7267 17.645 60.12 17.995C59.5367 18.3217 59.07 18.7883 58.72 19.395C58.3933 19.9783 58.23 20.6667 58.23 21.46C58.23 22.2533 58.3933 22.9533 58.72 23.56C59.07 24.1667 59.5483 24.645 60.155 24.995C60.7617 25.345 61.4383 25.52 62.185 25.52C62.885 25.52 63.5033 25.4033 64.04 25.17C64.6 24.9133 65.0783 24.5633 65.475 24.12L68.87 27.55C67.9833 28.4833 66.98 29.195 65.86 29.685C64.74 30.1517 63.4917 30.385 62.115 30.385ZM79.0331 30.385C77.2831 30.385 75.6965 30 74.2731 29.23C72.8731 28.4367 71.7648 27.3633 70.9481 26.01C70.1315 24.6567 69.7231 23.14 69.7231 21.46C69.7231 19.78 70.1315 18.275 70.9481 16.945C71.7648 15.615 72.8731 14.565 74.2731 13.795C75.6731 13.0017 77.2598 12.605 79.0331 12.605C80.8065 12.605 82.3931 12.99 83.7931 13.76C85.1931 14.53 86.3015 15.5917 87.1181 16.945C87.9348 18.275 88.3431 19.78 88.3431 21.46C88.3431 23.14 87.9348 24.6567 87.1181 26.01C86.3015 27.3633 85.1931 28.4367 83.7931 29.23C82.3931 30 80.8065 30.385 79.0331 30.385ZM79.0331 25.52C79.8031 25.52 80.4798 25.3567 81.0631 25.03C81.6465 24.68 82.0898 24.2017 82.3931 23.595C82.7198 22.965 82.8831 22.2533 82.8831 21.46C82.8831 20.6667 82.7198 19.9783 82.3931 19.395C82.0665 18.7883 81.6115 18.3217 81.0281 17.995C80.4681 17.645 79.8031 17.47 79.0331 17.47C78.2865 17.47 77.6215 17.645 77.0381 17.995C76.4548 18.3217 75.9998 18.7883 75.6731 19.395C75.3465 20.0017 75.1831 20.7017 75.1831 21.495C75.1831 22.265 75.3465 22.965 75.6731 23.595C75.9998 24.2017 76.4548 24.68 77.0381 25.03C77.6215 25.3567 78.2865 25.52 79.0331 25.52ZM102.244 30V20.305C102.244 19.4183 101.964 18.7067 101.404 18.17C100.867 17.61 100.179 17.33 99.3391 17.33C98.7558 17.33 98.2425 17.4583 97.7991 17.715C97.3558 17.9483 97.0058 18.2983 96.7491 18.765C96.4925 19.2083 96.3641 19.7217 96.3641 20.305L94.2991 19.29C94.2991 17.96 94.5908 16.7933 95.1741 15.79C95.7575 14.7867 96.5625 14.0167 97.5891 13.48C98.6391 12.92 99.8175 12.64 101.124 12.64C102.384 12.64 103.492 12.9433 104.449 13.55C105.429 14.1333 106.199 14.915 106.759 15.895C107.319 16.875 107.599 17.9483 107.599 19.115V30H102.244ZM91.0091 30V12.99H96.3641V30H91.0091ZM116.393 30L109.183 12.99H114.958L119.858 27.165H117.338L122.238 12.99H127.908L120.698 29.965L116.393 30ZM129.837 30V12.99H135.192V30H129.837ZM132.532 10.645C131.692 10.645 130.992 10.365 130.432 9.805C129.896 9.22167 129.627 8.52167 129.627 7.705C129.627 6.865 129.896 6.165 130.432 5.605C130.992 5.045 131.692 4.765 132.532 4.765C133.372 4.765 134.061 5.045 134.597 5.605C135.134 6.165 135.402 6.865 135.402 7.705C135.402 8.52167 135.134 9.22167 134.597 9.805C134.061 10.365 133.372 10.645 132.532 10.645ZM141.378 30V5.955H146.733V30H141.378ZM137.528 17.54V12.99H150.583V17.54H137.528ZM152.943 30V12.99H158.298V30H152.943ZM155.638 10.645C154.798 10.645 154.098 10.365 153.538 9.805C153.001 9.22167 152.733 8.52167 152.733 7.705C152.733 6.865 153.001 6.165 153.538 5.605C154.098 5.045 154.798 4.765 155.638 4.765C156.478 4.765 157.166 5.045 157.703 5.605C158.239 6.165 158.508 6.865 158.508 7.705C158.508 8.52167 158.239 9.22167 157.703 9.805C157.166 10.365 156.478 10.645 155.638 10.645ZM170.259 30.385C168.509 30.385 166.922 30 165.499 29.23C164.099 28.4367 162.99 27.3633 162.174 26.01C161.357 24.6567 160.949 23.14 160.949 21.46C160.949 19.78 161.357 18.275 162.174 16.945C162.99 15.615 164.099 14.565 165.499 13.795C166.899 13.0017 168.485 12.605 170.259 12.605C172.032 12.605 173.619 12.99 175.019 13.76C176.419 14.53 177.527 15.5917 178.344 16.945C179.16 18.275 179.569 19.78 179.569 21.46C179.569 23.14 179.16 24.6567 178.344 26.01C177.527 27.3633 176.419 28.4367 175.019 29.23C173.619 30 172.032 30.385 170.259 30.385ZM170.259 25.52C171.029 25.52 171.705 25.3567 172.289 25.03C172.872 24.68 173.315 24.2017 173.619 23.595C173.945 22.965 174.109 22.2533 174.109 21.46C174.109 20.6667 173.945 19.9783 173.619 19.395C173.292 18.7883 172.837 18.3217 172.254 17.995C171.694 17.645 171.029 17.47 170.259 17.47C169.512 17.47 168.847 17.645 168.264 17.995C167.68 18.3217 167.225 18.7883 166.899 19.395C166.572 20.0017 166.409 20.7017 166.409 21.495C166.409 22.265 166.572 22.965 166.899 23.595C167.225 24.2017 167.68 24.68 168.264 25.03C168.847 25.3567 169.512 25.52 170.259 25.52Z"
            fill="white" />
    </g>
    <defs>
        <clipPath id="clip0_72_2">
            <rect width="202" height="40" fill="white" />
        </clipPath>
    </defs>
</svg>